<?xml version="1.0" encoding="UTF-8" standalone="no"?>
<svg width="52px" height="48px" viewBox="0 0 52 48" version="1.1" xmlns="http://www.w3.org/2000/svg" xmlns:xlink="http://www.w3.org/1999/xlink" xmlns:sketch="http://www.bohemiancoding.com/sketch/ns">
    <!-- Generator: Sketch 3.4.4 (17249) - http://www.bohemiancoding.com/sketch -->
    <title>icon-polygon-full</title>
    <desc>Created with Sketch.</desc>
    <defs></defs>
    <g id="Page-1" stroke="none" stroke-width="1" fill="none" fill-rule="evenodd" sketch:type="MSPage">
        <g id="icon-polygon-full" sketch:type="MSArtboardGroup">
            <g sketch:type="MSLayerGroup" transform="translate(2.000000, 0.000000)">
                <path d="M48,24 L36,44.7846097 L12,44.7846097 L0,24 L12,3.21539031 L36,3.21539031 L48,24 L48,24 Z" id="polygon-outline" stroke="#2AA2CE" stroke-width="3" sketch:type="MSShapeGroup"></path>
                <g id="top" transform="translate(6.000000, 7.000000)" fill="#2AA2CE" sketch:type="MSShapeGroup">
                    <path d="M18,15 L10,7.10542736e-15 L26,8.8817842e-15 L18,15 L18,15 Z" id="triangle-center"></path>
                    <polygon id="triangle-left" points="8 1 16 16 0 16 "></polygon>
                    <polygon id="triangle-right" points="28 1 36 16 20 16 "></polygon>
                </g>
                <g id="bottom" transform="translate(6.000000, 25.000000)" fill="#2AA2CE" sketch:type="MSShapeGroup">
                    <polygon id="triangle-center" points="18 1 26 16 10 16 "></polygon>
                    <path d="M28,15 L20,-2.04281037e-14 L36,-1.86517468e-14 L28,15 L28,15 Z" id="triangle-right"></path>
                    <path d="M8,15 L0,-2.04281037e-14 L16,-1.86517468e-14 L8,15 L8,15 Z" id="triangle-left"></path>
                </g>
            </g>
        </g>
    </g>
</svg>