<?xml version="1.0" encoding="utf-8"?>
<!-- Generator: Adobe Illustrator 19.2.1, SVG Export Plug-In . SVG Version: 6.00 Build 0)  -->
<svg version="1.1" id="Layer_1" xmlns="http://www.w3.org/2000/svg" xmlns:xlink="http://www.w3.org/1999/xlink" x="0px" y="0px"
	 viewBox="0 0 22 21" style="enable-background:new 0 0 22 21;" xml:space="preserve">
<g>
	<path d="M11.1,2.3c2.3,0,4.2,0.9,6,2.3c1.9,1.5,3.4,3.5,4.6,5.6c0.1,0.1,0.1,0.3,0,0.4c-1.5,2.6-3.3,4.9-5.9,6.5
		c-3.5,2.1-7,1.9-10.3-0.4c-2.3-1.6-4-3.7-5.3-6.1c-0.1-0.1-0.1-0.3,0-0.4C1.8,7.4,3.8,5,6.8,3.4C8.1,2.7,9.5,2.3,11.1,2.3z
		 M16.4,10.4c0-3-2.5-5.4-5.5-5.4c-3,0-5.4,2.5-5.4,5.4c0,3,2.5,5.4,5.4,5.4C14,15.9,16.4,13.4,16.4,10.4z"/>
	<path d="M8.2,10.4c0-1.5,1.3-2.7,2.7-2.7c1.5,0,2.7,1.2,2.7,2.7c0,1.5-1.3,2.7-2.7,2.7C9.4,13.1,8.2,11.9,8.2,10.4z"/>
</g>
</svg>
