<?xml version="1.0" encoding="UTF-8" standalone="no"?>
<svg width="16px" height="23px" viewBox="0 0 16 23" version="1.1" xmlns="http://www.w3.org/2000/svg" xmlns:xlink="http://www.w3.org/1999/xlink" xmlns:sketch="http://www.bohemiancoding.com/sketch/ns">
    <!-- Generator: Sketch 3.4.4 (17249) - http://www.bohemiancoding.com/sketch -->
    <title>Untitled 2</title>
    <desc>Created with Sketch.</desc>
    <defs></defs>
    <g id="Page-1" stroke="none" stroke-width="1" fill="none" fill-rule="evenodd" sketch:type="MSPage">
        <path d="M12.5,0.25 C11.6048132,0.266276123 10.8642607,0.567379883 10.2783203,1.15332031 C9.69237988,1.73926074 9.39127612,2.47981323 9.375,3.375 C9.375,3.96094043 9.51741394,4.48583752 9.80224609,4.94970703 C10.0870782,5.41357654 10.4654924,5.78385278 10.9375,6.06054688 L10.9375,8.0625 L7.8125,11.1875 L4.6875,8.0625 L4.6875,6.06054688 C5.15950757,5.78385278 5.53792175,5.41357654 5.82275391,4.94970703 C6.10758606,4.48583752 6.25,3.96094043 6.25,3.375 C6.23372388,2.47981323 5.93262012,1.73926074 5.34667969,1.15332031 C4.76073926,0.567379883 4.02018677,0.266276123 3.125,0.25 C2.22981323,0.266276123 1.48926074,0.567379883 0.903320312,1.15332031 C0.317379883,1.73926074 0.016276123,2.47981323 0,3.375 C0,3.96094043 0.14241394,4.48583752 0.427246094,4.94970703 C0.712078247,5.41357654 1.09049243,5.78385278 1.5625,6.06054688 L1.5625,8.84375 L6.25,13.53125 L6.25,16.3144531 C5.77799243,16.5911472 5.39957825,16.9614235 5.11474609,17.425293 C4.82991394,17.8891625 4.6875,18.4140596 4.6875,19 C4.70377612,19.8951868 5.00487988,20.6357393 5.59082031,21.2216797 C6.17676074,21.8076201 6.91731323,22.1087239 7.8125,22.125 C8.70768677,22.1087239 9.44823926,21.8076201 10.0341797,21.2216797 C10.6201201,20.6357393 10.9212239,19.8951868 10.9375,19 C10.9375,18.4140596 10.7950861,17.8891625 10.5102539,17.425293 C10.2254218,16.9614235 9.84700757,16.5911472 9.375,16.3144531 L9.375,13.53125 L14.0625,8.84375 L14.0625,6.06054688 C14.5345076,5.78385278 14.9129218,5.41357654 15.1977539,4.94970703 C15.4825861,4.48583752 15.625,3.96094043 15.625,3.375 C15.6087239,2.47981323 15.3076201,1.73926074 14.7216797,1.15332031 C14.1357393,0.567379883 13.3951868,0.266276123 12.5,0.25 L12.5,0.25 Z M3.125,5.25488281 C2.60416406,5.23860669 2.16471533,5.05143408 1.80664062,4.69335938 C1.44856592,4.33528467 1.26953125,3.89583594 1.26953125,3.375 C1.26953125,2.85416406 1.44856592,2.41471533 1.80664062,2.05664062 C2.16471533,1.69856592 2.60416406,1.51953125 3.125,1.51953125 C3.64583594,1.51953125 4.08528467,1.69856592 4.44335938,2.05664062 C4.80143408,2.41471533 4.98046875,2.85416406 4.98046875,3.375 C4.98046875,3.89583594 4.80143408,4.33528467 4.44335938,4.69335938 C4.08528467,5.05143408 3.64583594,5.23860669 3.125,5.25488281 L3.125,5.25488281 Z M7.8125,20.8798828 C7.29166406,20.8636067 6.85221533,20.6764341 6.49414062,20.3183594 C6.13606592,19.9602847 5.95703125,19.5208359 5.95703125,19 C5.95703125,18.4791641 6.13606592,18.0397153 6.49414062,17.6816406 C6.85221533,17.3235659 7.29166406,17.1445312 7.8125,17.1445312 C8.33333594,17.1445312 8.77278467,17.3235659 9.13085938,17.6816406 C9.48893408,18.0397153 9.66796875,18.4791641 9.66796875,19 C9.66796875,19.5208359 9.48893408,19.9602847 9.13085938,20.3183594 C8.77278467,20.6764341 8.33333594,20.8636067 7.8125,20.8798828 L7.8125,20.8798828 Z M12.5,5.25488281 C11.9791641,5.23860669 11.5397153,5.05143408 11.1816406,4.69335938 C10.8235659,4.33528467 10.6445312,3.89583594 10.6445312,3.375 C10.6445312,2.85416406 10.8235659,2.41471533 11.1816406,2.05664062 C11.5397153,1.69856592 11.9791641,1.51953125 12.5,1.51953125 C13.0208359,1.51953125 13.4602847,1.69856592 13.8183594,2.05664062 C14.1764341,2.41471533 14.3554688,2.85416406 14.3554688,3.375 C14.3554688,3.89583594 14.1764341,4.33528467 13.8183594,4.69335938 C13.4602847,5.05143408 13.0208359,5.23860669 12.5,5.25488281 L12.5,5.25488281 Z" id="" fill="#000000" sketch:type="MSShapeGroup"></path>
    </g>
</svg>