<?xml version="1.0" encoding="UTF-8" standalone="no"?>
<svg width="22px" height="23px" viewBox="0 0 22 23" version="1.1" xmlns="http://www.w3.org/2000/svg" xmlns:xlink="http://www.w3.org/1999/xlink" xmlns:sketch="http://www.bohemiancoding.com/sketch/ns">
    <!-- Generator: Sketch 3.4.4 (17249) - http://www.bohemiancoding.com/sketch -->
    <title>Untitled 2</title>
    <desc>Created with Sketch.</desc>
    <defs></defs>
    <g id="Page-1" stroke="none" stroke-width="1" fill="none" fill-rule="evenodd" sketch:type="MSPage">
        <path d="M9.83886719,7.57421875 C9.54589697,7.28124854 9.39941406,6.91504126 9.39941406,6.47558594 C9.39941406,6.03613062 9.54589697,5.66992334 9.83886719,5.37695312 C10.1318374,5.08398291 10.4980447,4.9375 10.9375,4.9375 C11.3769553,4.9375 11.7431626,5.08398291 12.0361328,5.37695312 C12.329103,5.66992334 12.4755859,6.03613062 12.4755859,6.47558594 C12.4755859,6.91504126 12.329103,7.28124854 12.0361328,7.57421875 C11.7431626,7.86718896 11.3769553,8.01367188 10.9375,8.01367188 C10.4980447,8.01367188 10.1318374,7.86718896 9.83886719,7.57421875 L9.83886719,7.57421875 Z M12.5,15.8505859 L14.0625,15.8505859 C14.0462239,16.2737651 13.8834651,16.6399724 13.5742188,16.9492188 C13.2649724,17.2584651 12.9069031,17.4130859 12.5,17.4130859 L10.9375,17.4130859 C10.5305969,17.4130859 10.1725276,17.2584651 9.86328125,16.9492188 C9.55403491,16.6399724 9.39127612,16.2737651 9.375,15.8505859 L9.375,11.1630859 L7.8125,11.1630859 C7.82877612,10.772459 7.99153491,10.4225276 8.30078125,10.1132812 C8.61002759,9.80403491 8.96809692,9.63313818 9.375,9.60058594 L10.9375,9.60058594 C11.3444031,9.63313818 11.7024724,9.80403491 12.0117188,10.1132812 C12.3209651,10.4225276 12.4837239,10.772459 12.5,11.1630859 L12.5,15.8505859 Z M10.9375,2.27636719 C8.41470093,2.34147168 6.31511255,3.20816223 4.63867188,4.87646484 C2.9622312,6.54476746 2.09147168,8.64028687 2.02636719,11.1630859 C2.09147168,13.685885 2.9622312,15.7854734 4.63867188,17.4619141 C6.31511255,19.1383547 8.41470093,20.0091143 10.9375,20.0742188 C13.4602991,20.0091143 15.5598875,19.1383547 17.2363281,17.4619141 C18.9127688,15.7854734 19.7835283,13.685885 19.8486328,11.1630859 C19.7835283,8.64028687 18.9127688,6.54476746 17.2363281,4.87646484 C15.5598875,3.20816223 13.4602991,2.34147168 10.9375,2.27636719 L10.9375,2.27636719 Z M10.9375,0.225585938 C14.0299634,0.306966553 16.6056212,1.37710559 18.6645508,3.43603516 C20.7234803,5.49496472 21.7936194,8.07062256 21.875,11.1630859 C21.7936194,14.2555493 20.7234803,16.8312072 18.6645508,18.8901367 C16.6056212,20.9490663 14.0299634,22.0192053 10.9375,22.1005859 C7.84503662,22.0192053 5.26937878,20.9531353 3.21044922,18.9023438 C1.15151965,16.8515522 0.0813806152,14.2718254 0,11.1630859 C0.0813806152,8.05434644 1.15151965,5.47461963 3.21044922,3.42382812 C5.26937878,1.37303662 7.84503662,0.306966553 10.9375,0.225585938 L10.9375,0.225585938 Z" id="ï™" fill="#000000" sketch:type="MSShapeGroup"></path>
    </g>
</svg>