<svg width="21" height="21" viewBox="0 0 21 21" xmlns="http://www.w3.org/2000/svg"><title>Untitled 9</title><path d="M.32 10.708c0 4.53 2.938 8.373 7.012 9.73.513.093.7-.223.7-.495 0-.243-.01-.888-.014-1.744-2.852.62-3.454-1.375-3.454-1.375-.466-1.185-1.138-1.5-1.138-1.5-.93-.636.07-.624.07-.624 1.03.074 1.57 1.058 1.57 1.058.915 1.567 2.4 1.114 2.985.852.094-.662.36-1.114.65-1.37-2.275-.26-4.67-1.14-4.67-5.068 0-1.12.4-2.035 1.057-2.75-.106-.26-.458-1.303.1-2.715 0 0 .86-.275 2.82 1.052.817-.23 1.695-.343 2.566-.347.872.004 1.748.118 2.567.346 1.958-1.328 2.817-1.053 2.817-1.053.56 1.412.208 2.455.102 2.714.657.717 1.053 1.633 1.053 2.752 0 3.94-2.397 4.806-4.68 5.06.367.316.695.942.695 1.898 0 1.37-.013 2.477-.013 2.813 0 .274.185.593.705.493 4.07-1.36 7.006-5.2 7.006-9.728 0-5.663-4.59-10.253-10.254-10.253C4.912.455.32 5.045.32 10.708z" fill="#151513" fill-rule="evenodd"/></svg>