<?xml version="1.0" encoding="UTF-8" standalone="no"?>
<svg width="250px" height="115px" viewBox="0 0 250 115" version="1.1" xmlns="http://www.w3.org/2000/svg" xmlns:xlink="http://www.w3.org/1999/xlink" xmlns:sketch="http://www.bohemiancoding.com/sketch/ns">
    <!-- Generator: Sketch 3.4.4 (17249) - http://www.bohemiancoding.com/sketch -->
    <title>logo-nodezoo</title>
    <desc>Created with Sketch.</desc>
    <defs></defs>
    <g id="Page-1" stroke="none" stroke-width="1" fill="none" fill-rule="evenodd" sketch:type="MSPage">
        <g id="logo-nodezoo" sketch:type="MSArtboardGroup">
            <g id="nodezoo-logo" sketch:type="MSLayerGroup">
                <g id="lettering" transform="translate(0.000000, 50.997783)" fill="#2B90C5" sketch:type="MSShapeGroup">
                    <path d="M54.5454545,22.6718404 L37.4168514,22.6718404 C34.7006652,22.6718404 32.4833703,24.8891353 32.4833703,27.6053215 L32.4833703,58.3148559 C32.4833703,61.0310421 34.7006652,63.248337 37.4168514,63.248337 L54.5454545,63.248337 C57.2616408,63.248337 59.4789357,61.0310421 59.4789357,58.3148559 L59.4789357,27.6053215 C59.4235033,24.8891353 57.2616408,22.6718404 54.5454545,22.6718404 L54.5454545,22.6718404 Z M49.556541,54.8226164 L42.3503326,54.8226164 L42.3503326,31.3192905 L49.556541,31.3192905 L49.556541,54.8226164 L49.556541,54.8226164 Z" id="XMLID_19_"></path>
                    <path d="M22.3946785,22.1175166 L8.48115299,23.5033259 L8.48115299,22.0620843 L0.166297118,22.1175166 L0.166297118,62.2505543 L8.37028825,62.2505543 L8.37028825,30.2660754 L16.9068736,30.2660754 L16.9068736,62.2505543 L26.1086475,62.2505543 L26.1086475,25.886918 C26.1640798,23.7804878 24.5011086,22.1175166 22.3946785,22.1175166 L22.3946785,22.1175166 Z" id="XMLID_20_"></path>
                    <path d="M83.1485588,21.7849224 L74.6119734,21.7849224 L72.8381375,21.7849224 L72.616408,21.7849224 C68.6252772,21.7849224 65.4656319,25 65.4656319,28.9356984 L65.4656319,57.4279379 C65.4656319,59.9778271 68.45898,61.9179601 70.8425721,61.6962306 L83.0931264,60.5321508 L83.0931264,61.9733925 L91.4079823,61.9179601 L91.4079823,0.498891353 L83.1485588,0.498891353 L83.1485588,21.7849224 L83.1485588,21.7849224 Z M83.1485588,53.713969 L74.6119734,53.713969 L74.6119734,30.2660754 L83.1485588,30.2660754 L83.1485588,53.713969 L83.1485588,53.713969 Z" id="XMLID_27_"></path>
                    <path d="M118.791574,43.4035477 C121.175166,43.4035477 123.059867,41.518847 123.059867,39.135255 L123.059867,25.9423503 C123.059867,23.2261641 120.953437,21.0643016 118.348115,21.0643016 L101.940133,21.0643016 C99.3348115,21.0643016 97.2283814,23.2261641 97.2283814,25.9423503 L97.2283814,56.3747228 C97.2283814,59.0909091 99.3348115,61.2527716 101.940133,61.2527716 L118.348115,61.2527716 C120.953437,61.2527716 123.059867,59.0909091 123.059867,56.3747228 L123.059867,47.7827051 L114.301552,47.7827051 L114.301552,54.1574279 L105.986696,54.1574279 L105.875831,43.4035477 L114.301552,43.4035477 L118.791574,43.4035477 L118.791574,43.4035477 Z M105.820399,37.7494457 L105.709534,27.7716186 L114.301552,27.7716186 L114.301552,37.7494457 L105.820399,37.7494457 L105.820399,37.7494457 Z" id="XMLID_30_"></path>
                </g>
                <g id="zoo-hexagons" transform="translate(90.909091, 0.000000)" fill="#7AB3BF" sketch:type="MSShapeGroup">
                    <path d="M52.827051,21.9512195 L51.1086475,23.7804878 L51.0532151,23.7804878 L33.9800443,42.9600887 L67.1840355,42.9600887 L73.6696231,31.7627494 L55.3215078,0 L18.6807095,0 L10.0886918,14.9113082 L52.827051,14.9113082 L52.827051,21.9512195 Z" id="XMLID_5_"></path>
                    <path d="M20.7317073,44.4013304 L21.8957871,43.1818182 L39.1906874,23.7804878 L4.98891353,23.7804878 L0.332594235,31.7627494 L18.6807095,63.5254989 L55.3215078,63.5254989 L62.0842572,51.8292683 L20.7317073,51.8292683 L20.7317073,44.4013304 Z" id="XMLID_23_"></path>
                    <path d="M144.124169,10.6430155 L114.356984,10.6430155 L101.718404,32.5388027 L77.6607539,32.5388027 L71.6740576,42.9600887 L101.330377,43.0709534 L110.144124,58.3148559 L101.330377,73.5587583 L83.7028825,73.5587583 L74.8891353,58.3148559 L78.6585366,51.8292683 L66.518847,51.8292683 L62.7494457,58.3148559 L77.6053215,84.0909091 L107.372506,84.0909091 L120.011086,62.195122 L144.124169,62.195122 L158.980044,36.4190687 L144.124169,10.6430155 L144.124169,10.6430155 Z M138.08204,51.6629712 L120.454545,51.6629712 L111.640798,36.4190687 L120.454545,21.1751663 L138.08204,21.1751663 L146.895787,36.4190687 L138.08204,51.6629712 L138.08204,51.6629712 Z" id="XMLID_26_"></path>
                </g>
            </g>
        </g>
    </g>
</svg>