<svg width="250" height="115" viewBox="0 0 250 115" xmlns="http://www.w3.org/2000/svg"><title>nodezoo-logo</title><g fill="none" fill-rule="evenodd"><g fill="#2B90C5"><path d="M54.545 73.67H37.417c-2.716 0-4.934 2.217-4.934 4.933v30.71c0 2.716 2.218 4.933 4.934 4.933h17.128c2.717 0 4.934-2.217 4.934-4.933v-30.71c-.056-2.716-2.218-4.933-4.935-4.933zm-4.988 32.15H42.35V82.317h7.207v23.503zM22.395 73.115L8.48 74.5v-1.44l-8.314.055v40.133H8.37V81.264h8.537v31.984h9.202V76.885c.054-2.107-1.61-3.77-3.715-3.77zM83.15 72.783H72.615c-3.99 0-7.15 3.215-7.15 7.15v28.493c0 2.55 2.993 4.49 5.377 4.268l12.25-1.164v1.44l8.315-.054v-61.42h-8.26v21.287zm0 31.93H74.61v-23.45h8.537v23.45zM118.792 94.4c2.383 0 4.268-1.883 4.268-4.267V76.94c0-2.716-2.107-4.878-4.712-4.878H101.94c-2.605 0-4.712 2.162-4.712 4.878v30.433c0 2.716 2.107 4.878 4.712 4.878h16.408c2.605 0 4.712-2.16 4.712-4.877V98.78h-8.758v6.375h-8.315l-.11-10.754H118.79zm-12.972-5.653l-.11-9.978h8.592v9.977h-8.482z"/></g><g fill="#7AB3BF"><path d="M143.736 21.95l-1.718 1.83h-.056L124.89 42.96h33.203l6.486-11.197L146.23 0h-36.64l-8.592 14.91h42.738v7.04z"/><path d="M111.64 44.4l1.165-1.218L130.1 23.78H95.898l-4.656 7.983 18.348 31.762h36.64l6.763-11.696H111.64V44.4zM235.033 10.643h-29.767l-12.64 21.896H168.57l-5.987 10.42 29.656.11 8.813 15.245-8.814 15.244H174.61l-8.814-15.245 3.77-6.486h-12.14l-3.77 6.485 14.856 25.776h29.768l12.638-21.895h24.113L249.89 36.42l-14.857-25.777zm-6.042 41.02h-17.626L202.55 36.42l8.814-15.245h17.627l8.815 15.244-8.814 15.243z"/></g></g></svg>